<?xml version="1.0" standalone="no"?>
<!DOCTYPE svg PUBLIC "-//W3C//DTD SVG 20010904//EN"
 "http://www.w3.org/TR/2001/REC-SVG-20010904/DTD/svg10.dtd">
<svg version="1.0" xmlns="http://www.w3.org/2000/svg"
 width="168.000000pt" height="151.000000pt" viewBox="0 0 168.000000 151.000000"
 preserveAspectRatio="xMidYMid meet">

<g transform="translate(0.000000,151.000000) scale(0.100000,-0.100000)"
fill="#ffffff" stroke="none">
<path d="M558 1439 c-15 -8 -18 -25 -18 -109 l0 -100 -152 0 c-175 0 -222 -14
-258 -72 -19 -32 -20 -49 -20 -478 0 -426 1 -447 21 -490 25 -55 62 -95 114
-123 40 -22 45 -22 600 -22 l560 0 57 28 c31 15 68 43 83 62 57 75 55 54 55
704 0 537 -2 599 -16 605 -28 11 -1008 6 -1026 -5z m982 -622 l0 -563 -22 -44
c-27 -54 -71 -85 -139 -99 -31 -7 -206 -11 -461 -11 l-412 0 27 27 c14 16 36
51 49 78 l23 50 3 563 3 562 465 0 464 0 0 -563z m-1209 317 l24 -26 3 -389
c2 -333 5 -391 17 -396 9 -3 22 0 30 7 14 11 15 64 13 404 -2 215 -7 399 -12
409 -7 15 -1 17 63 17 l71 0 0 -449 c0 -294 -4 -459 -11 -478 -24 -65 -114
-126 -184 -126 -55 0 -118 35 -146 80 l-24 38 0 446 c0 425 1 448 19 468 29
32 105 29 137 -5z"/>
<path d="M712 1281 c-8 -5 -12 -17 -10 -27 3 -18 20 -19 371 -22 322 -2 368 0
373 13 4 8 1 22 -6 30 -11 13 -65 15 -364 15 -193 0 -357 -4 -364 -9z"/>
<path d="M700 960 l0 -170 375 0 375 0 0 170 0 170 -375 0 -375 0 0 -170z"/>
<path d="M739 684 c-9 -11 -10 -20 -2 -32 9 -14 29 -17 133 -17 104 0 124 3
133 17 8 12 7 21 -2 32 -11 13 -36 16 -131 16 -95 0 -120 -3 -131 -16z"/>
<path d="M1153 694 c-18 -8 -16 -51 3 -58 9 -3 64 -6 123 -6 119 0 156 13 135
47 -10 16 -27 18 -130 20 -65 1 -125 -1 -131 -3z"/>
<path d="M734 555 c-3 -8 -3 -22 0 -30 5 -13 27 -15 138 -13 l133 3 0 25 0 25
-133 3 c-111 2 -133 0 -138 -13z"/>
<path d="M1144 555 c-16 -39 0 -45 129 -45 99 0 127 3 137 15 10 12 10 18 0
30 -10 12 -38 15 -137 15 -101 0 -125 -3 -129 -15z"/>
<path d="M742 438 c-7 -7 -12 -18 -12 -25 0 -25 41 -34 151 -31 92 2 114 6
122 20 8 12 7 21 -2 32 -11 13 -36 16 -130 16 -78 0 -121 -4 -129 -12z"/>
<path d="M1147 444 c-13 -13 -7 -52 9 -58 9 -3 64 -6 123 -6 119 0 156 13 135
47 -10 16 -28 18 -136 21 -68 1 -127 -1 -131 -4z"/>
<path d="M737 314 c-15 -15 -6 -44 16 -49 12 -3 74 -4 137 -3 l115 3 0 25 0
25 -131 3 c-71 1 -133 -1 -137 -4z"/>
<path d="M1144 305 c-16 -39 0 -45 129 -45 130 0 155 8 141 44 -9 23 -261 24
-270 1z"/>
</g>
</svg>
